<svg xmlns="http://www.w3.org/2000/svg" xmlns:xlink="http://www.w3.org/1999/xlink" width="1080" zoomAndPan="magnify" viewBox="0 0 810 809.999993" height="1080" preserveAspectRatio="xMidYMid meet" version="1.0"><defs><clipPath id="89600dbf0f"><path d="M 81.003906 113.398438 L 728.996094 113.398438 L 728.996094 696.394531 L 81.003906 696.394531 Z M 81.003906 113.398438 " clip-rule="nonzero"/></clipPath></defs><g clip-path="url(#89600dbf0f)"><path fill="#5c8374" d="M 728.996094 239.503906 C 728.996094 242.949219 727.628906 246.238281 725.199219 248.667969 L 696.292969 277.574219 L 615.269531 196.574219 L 644.152344 167.644531 C 646.582031 165.214844 649.871094 163.847656 653.3125 163.847656 C 653.3125 163.847656 653.3125 163.847656 653.339844 163.847656 C 656.757812 163.847656 660.070312 165.214844 662.503906 167.644531 L 725.199219 230.34375 C 727.628906 232.773438 728.996094 236.0625 728.996094 239.503906 Z M 582.691406 328.480469 L 469.445312 441.726562 C 466.914062 444.257812 463.597656 445.523438 460.28125 445.523438 C 456.964844 445.523438 453.648438 444.257812 451.117188 441.726562 C 446.054688 436.664062 446.054688 428.460938 451.117188 423.398438 L 564.367188 310.152344 C 569.402344 305.089844 577.628906 305.089844 582.691406 310.152344 C 587.753906 315.214844 587.753906 323.417969 582.691406 328.480469 Z M 339.898438 552.921875 L 360.878906 497.664062 L 395.230469 531.964844 Z M 346.707031 465.164062 C 346.324219 465.542969 346.023438 465.976562 345.691406 466.40625 C 345.542969 466.609375 345.339844 466.785156 345.1875 467.011719 C 344.628906 467.824219 344.148438 468.707031 343.792969 469.621094 C 343.792969 469.671875 343.769531 469.695312 343.746094 469.722656 L 305.472656 570.667969 C 303.648438 575.425781 304.8125 580.816406 308.410156 584.410156 C 310.890625 586.890625 314.203125 588.207031 317.570312 588.207031 C 319.117188 588.207031 320.683594 587.953125 322.179688 587.371094 L 423.175781 549.074219 C 423.199219 549.074219 423.226562 549.050781 423.277344 549.023438 C 424.1875 548.671875 425.074219 548.214844 425.882812 547.632812 C 426.109375 547.480469 426.289062 547.304688 426.515625 547.125 C 426.921875 546.824219 427.351562 546.519531 427.730469 546.140625 L 677.96875 295.902344 L 596.941406 214.902344 Z M 170.632812 218.242188 L 450.890625 218.242188 C 458.054688 218.242188 463.851562 224.066406 463.851562 231.203125 C 463.851562 238.367188 458.054688 244.164062 450.890625 244.164062 L 170.632812 244.164062 C 163.46875 244.164062 157.671875 238.367188 157.671875 231.203125 C 157.671875 224.066406 163.46875 218.242188 170.632812 218.242188 Z M 446.054688 564.464844 C 445.042969 565.476562 443.957031 566.390625 442.84375 567.273438 L 442.257812 567.78125 L 440.691406 568.921875 C 438.867188 570.160156 437.046875 571.199219 435.199219 572.085938 L 434.414062 572.566406 L 432.035156 573.425781 L 331.367188 611.621094 C 326.9375 613.292969 322.304688 614.128906 317.570312 614.128906 C 307.191406 614.128906 297.421875 610.101562 290.082031 602.761719 C 285.90625 598.585938 282.867188 593.574219 280.96875 588.207031 L 170.632812 588.207031 C 163.46875 588.207031 157.671875 582.410156 157.671875 575.25 C 157.671875 568.085938 163.46875 562.289062 170.632812 562.289062 L 280.96875 562.289062 C 281.070312 562.035156 281.121094 561.757812 281.222656 561.476562 L 303.699219 502.195312 L 170.609375 502.195312 C 163.445312 502.195312 157.648438 496.398438 157.648438 489.238281 C 157.648438 482.074219 163.445312 476.277344 170.609375 476.277344 L 313.546875 476.277344 L 320.253906 458.558594 L 320.582031 457.976562 C 321.496094 456.078125 322.582031 454.128906 323.847656 452.304688 L 324.660156 451.140625 L 325.46875 450.179688 C 326.40625 448.964844 327.34375 447.875 328.378906 446.839844 L 359.007812 416.1875 L 170.632812 416.1875 C 163.46875 416.1875 157.671875 410.390625 157.671875 403.226562 C 157.671875 396.085938 163.46875 390.265625 170.632812 390.265625 L 384.925781 390.265625 L 445.019531 330.175781 L 170.632812 330.175781 C 163.46875 330.175781 157.671875 324.378906 157.671875 317.214844 C 157.671875 310.078125 163.46875 304.253906 170.632812 304.253906 L 450.890625 304.253906 C 456.332031 304.253906 460.941406 307.597656 462.890625 312.328125 L 540.574219 234.644531 L 540.574219 126.386719 C 540.574219 119.222656 534.777344 113.425781 527.613281 113.425781 L 93.960938 113.425781 C 86.800781 113.425781 81.003906 119.222656 81.003906 126.386719 L 81.003906 683.433594 C 81.003906 690.597656 86.800781 696.394531 93.960938 696.394531 L 527.613281 696.394531 C 534.777344 696.394531 540.574219 690.597656 540.574219 683.433594 L 540.574219 469.949219 L 446.054688 564.464844 " fill-opacity="1" fill-rule="nonzero"/></g></svg>