<svg version="1.0" preserveAspectRatio="xMidYMid meet" viewBox="41.45175 205.4159982248 732.24 395.279996584" zoomAndPan="magnify" xmlns:xlink="http://www.w3.org/1999/xlink" xmlns="http://www.w3.org/2000/svg" style="max-height: 500px" width="732.24" height="395.279996584"><defs><clipPath id="f96a439594"><path clip-rule="nonzero" d="M 4.003906 14.148438 L 12.699219 14.148438 L 12.699219 23.128906 L 4.003906 23.128906 Z M 4.003906 14.148438"/></clipPath><clipPath id="95d16e01f6"><path clip-rule="nonzero" d="M 12.675781 17.175781 C 12.449219 20.398438 11.101562 22.050781 10.199219 22.648438 C 9.523438 23.023438 8.851562 23.175781 8.101562 23.023438 C 6.976562 22.800781 5.175781 21.898438 4.5 20.851562 C 3.898438 19.800781 3.898438 17.699219 4.273438 16.648438 C 4.5 15.898438 4.875 15.375 5.550781 15 C 6.523438 14.398438 8.625 14.023438 9.675781 14.25 C 10.5 14.398438 11.550781 15.375 11.550781 15.375"/></clipPath><clipPath id="59f981fa16"><path clip-rule="nonzero" d="M 0.00390625 0.148438 L 8.699219 0.148438 L 8.699219 9.128906 L 0.00390625 9.128906 Z M 0.00390625 0.148438"/></clipPath><clipPath id="9423c47db4"><path clip-rule="nonzero" d="M 8.675781 3.175781 C 8.449219 6.398438 7.101562 8.050781 6.199219 8.648438 C 5.523438 9.023438 4.851562 9.175781 4.101562 9.023438 C 2.976562 8.800781 1.175781 7.898438 0.5 6.851562 C -0.101562 5.800781 -0.101562 3.699219 0.273438 2.648438 C 0.5 1.898438 0.875 1.375 1.550781 1 C 2.523438 0.398438 4.625 0.0234375 5.675781 0.25 C 6.5 0.398438 7.550781 1.375 7.550781 1.375"/></clipPath><clipPath id="c61bfc7a7c"><rect height="10" y="0" width="9" x="0"/></clipPath></defs><path fill-rule="evenodd" fill-opacity="1" d="M 68.136719 219.730469 C 69.109375 219.308594 70.105469 218.9375 71.121094 218.613281 C 72.132812 218.289062 73.160156 218.015625 74.199219 217.792969 C 75.242188 217.574219 76.289062 217.402344 77.347656 217.285156 C 78.40625 217.167969 79.464844 217.101562 80.527344 217.089844 C 81.59375 217.078125 82.65625 217.117188 83.714844 217.210938 C 84.773438 217.304688 85.828125 217.449219 86.871094 217.648438 C 87.917969 217.847656 88.949219 218.09375 89.96875 218.394531 C 90.992188 218.695312 91.996094 219.046875 92.980469 219.445312 C 93.964844 219.847656 94.929688 220.292969 95.871094 220.789062 C 96.8125 221.285156 97.726562 221.828125 98.613281 222.414062 C 99.5 223 100.359375 223.628906 101.183594 224.300781 C 102.007812 224.972656 102.796875 225.683594 103.550781 226.433594 C 104.304688 227.183594 105.023438 227.96875 105.699219 228.792969 C 106.375 229.613281 107.007812 230.464844 107.601562 231.347656 C 108.191406 232.234375 108.738281 233.144531 109.238281 234.082031 C 109.738281 235.023438 110.195312 235.984375 110.597656 236.964844 L 80.824219 249.761719 L 110.597656 236.964844 L 110.859375 237.226562 C 110.960938 237.691406 111.132812 238.125 111.375 238.535156 C 112.152344 240.101562 113.1875 242.1875 114.484375 245.0625 C 117.332031 250.546875 121.472656 258.902344 127.429688 268.824219 C 143.042969 294.992188 161.082031 319.367188 181.546875 341.941406 C 187.5 348.210938 193.457031 354.476562 199.929688 360.484375 L 200.707031 361.269531 C 207.425781 367.921875 214.449219 374.234375 221.78125 380.207031 C 229.113281 386.179688 236.71875 391.78125 244.59375 397.015625 C 252.46875 402.25 260.578125 407.089844 268.921875 411.535156 C 277.269531 415.980469 285.808594 420.015625 294.542969 423.632812 C 303.28125 427.25 312.171875 430.4375 321.21875 433.191406 C 330.261719 435.949219 339.421875 438.257812 348.691406 440.125 C 357.960938 441.992188 367.300781 443.40625 376.707031 444.367188 C 386.113281 445.328125 395.542969 445.832031 405 445.875 C 422.855469 445.933594 440.554688 444.316406 458.101562 441.023438 C 475.648438 437.730469 492.730469 432.820312 509.347656 426.292969 C 527.972656 418.625 545.734375 409.304688 562.621094 398.332031 C 579.511719 387.355469 595.242188 374.914062 609.8125 361.007812 C 636.074219 335.671875 658.773438 307.46875 677.910156 276.398438 C 685.417969 264.125 690.855469 254.203125 694.480469 247.152344 C 696.292969 243.757812 697.589844 240.886719 698.363281 239.054688 C 698.578125 238.425781 698.835938 237.816406 699.140625 237.226562 L 699.402344 236.964844 C 699.808594 235.984375 700.265625 235.027344 700.765625 234.089844 C 701.269531 233.152344 701.816406 232.242188 702.410156 231.359375 C 703.003906 230.476562 703.640625 229.628906 704.316406 228.808594 C 704.992188 227.988281 705.710938 227.203125 706.464844 226.457031 C 707.21875 225.707031 708.007812 224.996094 708.832031 224.328125 C 709.660156 223.65625 710.515625 223.027344 711.402344 222.445312 C 712.289062 221.859375 713.203125 221.316406 714.144531 220.824219 C 715.085938 220.328125 716.046875 219.878906 717.03125 219.480469 C 718.019531 219.082031 719.019531 218.730469 720.039062 218.429688 C 721.058594 218.128906 722.09375 217.878906 723.136719 217.679688 C 724.179688 217.484375 725.230469 217.335938 726.292969 217.242188 C 727.351562 217.148438 728.410156 217.105469 729.472656 217.117188 C 730.539062 217.128906 731.597656 217.191406 732.652344 217.308594 C 733.710938 217.421875 734.757812 217.589844 735.800781 217.808594 C 736.839844 218.03125 737.867188 218.300781 738.878906 218.621094 C 739.894531 218.941406 740.886719 219.3125 741.863281 219.734375 C 742.84375 220.15625 743.800781 220.625 744.734375 221.144531 C 745.667969 221.660156 746.570312 222.222656 747.449219 222.828125 C 748.328125 223.4375 749.175781 224.082031 749.988281 224.773438 C 750.804688 225.460938 751.582031 226.1875 752.328125 226.953125 C 753.070312 227.71875 753.777344 228.519531 754.441406 229.351562 C 755.105469 230.1875 755.730469 231.050781 756.308594 231.949219 C 756.890625 232.84375 757.425781 233.765625 757.914062 234.710938 C 758.40625 235.660156 758.847656 236.628906 759.246094 237.621094 C 759.640625 238.609375 759.988281 239.617188 760.28125 240.644531 C 760.578125 241.667969 760.824219 242.707031 761.019531 243.753906 C 761.214844 244.804688 761.359375 245.859375 761.453125 246.921875 C 761.542969 247.984375 761.582031 249.050781 761.570312 250.117188 C 761.558594 251.183594 761.492188 252.25 761.378906 253.308594 C 761.261719 254.371094 761.09375 255.421875 760.871094 256.46875 C 760.652344 257.511719 760.382812 258.542969 760.0625 259.558594 C 759.742188 260.578125 759.371094 261.578125 758.953125 262.558594 L 729.175781 249.761719 L 758.953125 262.558594 L 758.953125 262.820312 L 758.695312 263.082031 L 758.4375 263.863281 C 757.957031 264.800781 757.523438 265.757812 757.140625 266.734375 C 755.847656 269.085938 754.292969 272.484375 752.222656 276.921875 C 747.820312 285.277344 741.605469 297.027344 733.0625 310.871094 C 716.832031 337.101562 698.359375 361.648438 677.652344 384.507812 L 703.542969 410.621094 C 704.28125 411.390625 704.984375 412.191406 705.644531 413.023438 C 706.308594 413.859375 706.925781 414.722656 707.507812 415.617188 C 708.085938 416.511719 708.621094 417.429688 709.113281 418.375 C 709.605469 419.320312 710.046875 420.285156 710.445312 421.273438 C 710.84375 422.261719 711.195312 423.265625 711.496094 424.285156 C 711.800781 425.308594 712.050781 426.339844 712.253906 427.386719 C 712.457031 428.433594 712.609375 429.484375 712.710938 430.546875 C 712.8125 431.605469 712.863281 432.667969 712.863281 433.734375 C 712.863281 434.796875 712.8125 435.859375 712.710938 436.921875 C 712.609375 437.980469 712.457031 439.035156 712.253906 440.078125 C 712.050781 441.125 711.800781 442.15625 711.496094 443.179688 C 711.195312 444.199219 710.84375 445.203125 710.445312 446.191406 C 710.046875 447.179688 709.601562 448.148438 709.113281 449.089844 C 708.621094 450.035156 708.085938 450.957031 707.507812 451.851562 C 706.925781 452.742188 706.308594 453.609375 705.644531 454.441406 C 704.984375 455.277344 704.28125 456.078125 703.542969 456.84375 C 702.789062 457.601562 702.003906 458.320312 701.179688 459 C 700.355469 459.683594 699.5 460.320312 698.613281 460.917969 C 697.726562 461.511719 696.8125 462.0625 695.871094 462.570312 C 694.929688 463.074219 693.964844 463.535156 692.980469 463.945312 C 691.992188 464.355469 690.988281 464.71875 689.96875 465.027344 C 688.945312 465.339844 687.910156 465.601562 686.863281 465.8125 C 685.816406 466.019531 684.761719 466.175781 683.695312 466.28125 C 682.632812 466.386719 681.566406 466.441406 680.5 466.441406 C 679.429688 466.441406 678.363281 466.386719 677.300781 466.28125 C 676.238281 466.175781 675.183594 466.019531 674.132812 465.808594 C 673.085938 465.601562 672.050781 465.339844 671.03125 465.027344 C 670.007812 464.71875 669.003906 464.355469 668.015625 463.945312 C 667.03125 463.535156 666.066406 463.074219 665.125 462.570312 C 664.183594 462.0625 663.269531 461.511719 662.382812 460.917969 C 661.496094 460.320312 660.640625 459.683594 659.820312 459 C 658.996094 458.320312 658.207031 457.601562 657.453125 456.84375 L 630.265625 429.425781 C 611.199219 445.167969 590.742188 458.832031 568.902344 470.421875 L 594.277344 509.855469 C 594.855469 510.753906 595.390625 511.675781 595.878906 512.625 C 596.371094 513.574219 596.8125 514.546875 597.207031 515.539062 C 597.601562 516.535156 597.945312 517.542969 598.238281 518.570312 C 598.535156 519.597656 598.78125 520.636719 598.972656 521.6875 C 599.167969 522.738281 599.308594 523.796875 599.398438 524.863281 C 599.488281 525.925781 599.527344 526.992188 599.511719 528.0625 C 599.5 529.128906 599.433594 530.195312 599.3125 531.257812 C 599.195312 532.320312 599.027344 533.375 598.804688 534.417969 C 598.582031 535.464844 598.308594 536.496094 597.988281 537.515625 C 597.664062 538.535156 597.292969 539.535156 596.871094 540.515625 C 596.453125 541.5 595.984375 542.457031 595.46875 543.394531 C 594.953125 544.332031 594.394531 545.242188 593.792969 546.121094 C 593.1875 547.003906 592.542969 547.855469 591.855469 548.675781 C 591.167969 549.492188 590.445312 550.277344 589.679688 551.023438 C 588.917969 551.769531 588.121094 552.480469 587.285156 553.148438 C 586.453125 553.820312 585.589844 554.445312 584.695312 555.03125 C 583.808594 555.617188 582.890625 556.152344 581.949219 556.648438 C 581.007812 557.140625 580.042969 557.585938 579.054688 557.980469 C 578.066406 558.378906 577.0625 558.726562 576.042969 559.023438 C 575.023438 559.320312 573.988281 559.566406 572.941406 559.761719 C 571.898438 559.957031 570.84375 560.101562 569.785156 560.191406 C 568.726562 560.28125 567.664062 560.316406 566.601562 560.304688 C 565.535156 560.289062 564.476562 560.21875 563.417969 560.101562 C 562.363281 559.980469 561.3125 559.808594 560.273438 559.582031 C 559.234375 559.359375 558.207031 559.085938 557.195312 558.757812 C 556.183594 558.433594 555.191406 558.054688 554.214844 557.632812 C 553.238281 557.207031 552.289062 556.734375 551.359375 556.214844 C 550.433594 555.695312 549.53125 555.132812 548.660156 554.523438 C 547.785156 553.914062 546.945312 553.265625 546.140625 552.574219 C 545.332031 551.882812 544.558594 551.152344 543.824219 550.382812 C 543.089844 549.613281 542.394531 548.808594 541.738281 547.972656 C 541.082031 547.136719 540.472656 546.265625 539.902344 545.367188 L 508.054688 496.015625 C 484.96875 503.066406 461.40625 507.679688 437.367188 509.855469 L 437.367188 560.253906 C 437.375 561.320312 437.332031 562.382812 437.234375 563.445312 C 437.140625 564.507812 436.992188 565.5625 436.792969 566.609375 C 436.589844 567.65625 436.339844 568.6875 436.039062 569.710938 C 435.734375 570.734375 435.382812 571.738281 434.980469 572.726562 C 434.582031 573.710938 434.132812 574.675781 433.632812 575.621094 C 433.136719 576.5625 432.59375 577.480469 432.007812 578.367188 C 431.421875 579.257812 430.789062 580.117188 430.117188 580.941406 C 429.445312 581.769531 428.734375 582.5625 427.984375 583.320312 C 427.234375 584.074219 426.449219 584.792969 425.625 585.472656 C 424.804688 586.152344 423.953125 586.789062 423.066406 587.382812 C 422.183594 587.980469 421.273438 588.53125 420.332031 589.035156 C 419.394531 589.539062 418.433594 589.996094 417.449219 590.40625 C 416.464844 590.816406 415.464844 591.175781 414.445312 591.488281 C 413.425781 591.800781 412.394531 592.058594 411.347656 592.269531 C 410.304688 592.476562 409.25 592.632812 408.191406 592.738281 C 407.128906 592.84375 406.066406 592.898438 405 592.898438 C 403.933594 592.898438 402.871094 592.84375 401.808594 592.738281 C 400.75 592.632812 399.695312 592.476562 398.652344 592.269531 C 397.605469 592.058594 396.574219 591.800781 395.554688 591.488281 C 394.535156 591.175781 393.535156 590.816406 392.550781 590.40625 C 391.566406 589.996094 390.605469 589.539062 389.667969 589.035156 C 388.726562 588.53125 387.816406 587.980469 386.933594 587.382812 C 386.046875 586.789062 385.195312 586.152344 384.375 585.472656 C 383.550781 584.792969 382.765625 584.074219 382.015625 583.320312 C 381.265625 582.5625 380.554688 581.769531 379.882812 580.941406 C 379.210938 580.117188 378.578125 579.257812 377.992188 578.367188 C 377.40625 577.480469 376.863281 576.5625 376.367188 575.621094 C 375.867188 574.675781 375.417969 573.710938 375.019531 572.726562 C 374.617188 571.738281 374.265625 570.734375 373.960938 569.710938 C 373.660156 568.6875 373.410156 567.65625 373.207031 566.609375 C 373.007812 565.5625 372.859375 564.507812 372.765625 563.445312 C 372.667969 562.382812 372.625 561.320312 372.632812 560.253906 L 372.632812 509.855469 C 348.59375 507.679688 325.03125 503.066406 301.945312 496.015625 L 270.097656 545.367188 C 269.53125 546.265625 268.917969 547.132812 268.261719 547.972656 C 267.605469 548.808594 266.910156 549.613281 266.175781 550.382812 C 265.441406 551.148438 264.667969 551.878906 263.859375 552.574219 C 263.054688 553.265625 262.214844 553.914062 261.339844 554.523438 C 260.46875 555.132812 259.566406 555.695312 258.640625 556.214844 C 257.710938 556.734375 256.761719 557.207031 255.785156 557.632812 C 254.808594 558.054688 253.816406 558.429688 252.804688 558.757812 C 251.792969 559.082031 250.765625 559.359375 249.726562 559.582031 C 248.6875 559.808594 247.636719 559.980469 246.582031 560.101562 C 245.523438 560.21875 244.464844 560.289062 243.398438 560.304688 C 242.335938 560.316406 241.273438 560.28125 240.214844 560.191406 C 239.15625 560.097656 238.101562 559.957031 237.058594 559.761719 C 236.011719 559.566406 234.976562 559.320312 233.957031 559.023438 C 232.9375 558.726562 231.933594 558.378906 230.945312 557.980469 C 229.957031 557.585938 228.992188 557.140625 228.050781 556.644531 C 227.109375 556.152344 226.191406 555.613281 225.304688 555.03125 C 224.414062 554.441406 223.558594 553.808594 222.730469 553.136719 C 221.902344 552.460938 221.109375 551.75 220.351562 551 C 219.59375 550.25 218.875 549.464844 218.191406 548.644531 C 217.511719 547.824219 216.871094 546.972656 216.269531 546.089844 C 215.671875 545.207031 215.117188 544.300781 214.605469 543.363281 C 214.09375 542.425781 213.628906 541.46875 213.210938 540.488281 C 212.792969 539.507812 212.425781 538.507812 212.101562 537.488281 C 211.78125 536.472656 211.511719 535.441406 211.289062 534.398438 C 211.066406 533.355469 210.898438 532.304688 210.777344 531.242188 C 210.660156 530.183594 210.589844 529.121094 210.574219 528.054688 C 210.558594 526.988281 210.59375 525.921875 210.683594 524.859375 C 210.769531 523.796875 210.90625 522.742188 211.097656 521.691406 C 211.285156 520.640625 211.527344 519.605469 211.816406 518.578125 C 212.109375 517.550781 212.445312 516.542969 212.835938 515.546875 C 213.222656 514.554688 213.660156 513.582031 214.140625 512.632812 C 214.625 511.679688 215.152344 510.753906 215.722656 509.855469 L 241.097656 470.421875 C 219.296875 458.773438 198.839844 445.105469 179.734375 429.425781 L 152.546875 456.84375 C 151.800781 457.601562 151.015625 458.320312 150.199219 459 C 149.382812 459.679688 148.53125 460.320312 147.652344 460.914062 C 146.769531 461.511719 145.863281 462.0625 144.925781 462.570312 C 143.992188 463.074219 143.035156 463.535156 142.050781 463.945312 C 141.070312 464.355469 140.070312 464.714844 139.054688 465.027344 C 138.039062 465.339844 137.007812 465.601562 135.964844 465.808594 C 134.921875 466.019531 133.871094 466.175781 132.8125 466.28125 C 131.753906 466.386719 130.695312 466.441406 129.628906 466.441406 C 128.566406 466.441406 127.503906 466.386719 126.445312 466.28125 C 125.386719 466.175781 124.339844 466.019531 123.296875 465.808594 C 122.253906 465.601562 121.222656 465.339844 120.207031 465.027344 C 119.1875 464.714844 118.191406 464.355469 117.207031 463.945312 C 116.226562 463.535156 115.269531 463.074219 114.332031 462.570312 C 113.398438 462.0625 112.488281 461.511719 111.609375 460.914062 C 110.726562 460.320312 109.878906 459.679688 109.0625 459 C 108.242188 458.320312 107.460938 457.601562 106.714844 456.84375 C 105.960938 456.082031 105.25 455.289062 104.574219 454.460938 C 103.898438 453.632812 103.265625 452.773438 102.671875 451.882812 C 102.082031 450.988281 101.535156 450.074219 101.035156 449.128906 C 100.53125 448.183594 100.078125 447.21875 99.671875 446.230469 C 99.265625 445.242188 98.90625 444.234375 98.597656 443.210938 C 98.289062 442.1875 98.03125 441.152344 97.824219 440.101562 C 97.617188 439.054688 97.460938 437.996094 97.355469 436.933594 C 97.25 435.867188 97.199219 434.800781 97.199219 433.734375 C 97.199219 432.664062 97.25 431.597656 97.355469 430.53125 C 97.460938 429.46875 97.617188 428.414062 97.824219 427.363281 C 98.03125 426.316406 98.289062 425.277344 98.597656 424.253906 C 98.90625 423.230469 99.265625 422.226562 99.671875 421.238281 C 100.078125 420.246094 100.53125 419.28125 101.035156 418.335938 C 101.535156 417.394531 102.082031 416.476562 102.671875 415.585938 C 103.265625 414.695312 103.898438 413.832031 104.574219 413.003906 C 105.25 412.175781 105.960938 411.382812 106.714844 410.621094 L 132.347656 384.507812 C 109.390625 359.125 89.195312 331.703125 71.761719 302.25 C 65.027344 290.761719 59.847656 281.097656 56.484375 274.308594 C 54.929688 270.652344 53.636719 268.042969 52.597656 265.953125 C 52.144531 265.21875 51.800781 264.433594 51.5625 263.601562 L 51.304688 263.082031 L 51.046875 262.820312 L 51.046875 262.558594 L 80.824219 249.761719 L 51.046875 262.558594 C 50.628906 261.578125 50.257812 260.578125 49.9375 259.558594 C 49.617188 258.542969 49.347656 257.511719 49.125 256.46875 C 48.90625 255.421875 48.738281 254.371094 48.621094 253.308594 C 48.503906 252.25 48.441406 251.183594 48.429688 250.117188 C 48.417969 249.050781 48.457031 247.984375 48.546875 246.921875 C 48.640625 245.859375 48.78125 244.804688 48.976562 243.753906 C 49.171875 242.707031 49.417969 241.667969 49.714844 240.644531 C 50.011719 239.617188 50.359375 238.609375 50.753906 237.621094 C 51.148438 236.628906 51.59375 235.660156 52.082031 234.710938 C 52.574219 233.765625 53.109375 232.84375 53.691406 231.949219 C 54.269531 231.050781 54.894531 230.1875 55.558594 229.351562 C 56.222656 228.519531 56.929688 227.71875 57.671875 226.953125 C 58.414062 226.1875 59.195312 225.460938 60.007812 224.773438 C 60.824219 224.082031 61.671875 223.4375 62.550781 222.828125 C 63.425781 222.222656 64.332031 221.660156 65.265625 221.144531 C 66.199219 220.625 67.15625 220.15625 68.136719 219.730469 Z M 68.136719 219.730469" fill="#5c8374"/><g clip-path="url(#f96a439594)"><g clip-path="url(#95d16e01f6)"><g transform="matrix(1, 0, 0, 1, 4, 14)"><g clip-path="url(#c61bfc7a7c)"><g clip-path="url(#59f981fa16)"><g clip-path="url(#9423c47db4)"><rect fill-opacity="1" y="-192.199998" height="1166.39999" fill="#e7191f" width="1166.4" x="-182.2"/></g></g></g></g></g></g></svg>