<svg version="1.0" preserveAspectRatio="xMidYMid meet" viewBox="21.6675 207.986938202582 769.5 395.279996584" zoomAndPan="magnify" xmlns:xlink="http://www.w3.org/1999/xlink" xmlns="http://www.w3.org/2000/svg" style="max-height: 500px" width="769.5" height="395.279996584"><defs><clipPath id="68f7c67971"><path clip-rule="nonzero" d="M 27 219.308594 L 783 219.308594 L 783 590.558594 L 27 590.558594 Z M 27 219.308594"/></clipPath><clipPath id="d14640aaa9"><path clip-rule="nonzero" d="M 11.082031 14.851562 L 19.96875 14.851562 L 19.96875 23.625 L 11.082031 23.625 Z M 11.082031 14.851562"/></clipPath><clipPath id="767f9560b3"><path clip-rule="nonzero" d="M 19.949219 17.925781 C 19.726562 21.074219 18.601562 22.875 17.476562 23.324219 C 16.351562 23.851562 14.25 23.550781 13.273438 23.101562 C 12.601562 22.800781 12.148438 22.199219 11.773438 21.601562 C 11.398438 21 11.101562 20.324219 11.101562 19.5 C 11.175781 18.449219 11.851562 16.5 12.824219 15.675781 C 13.800781 14.925781 15.898438 14.773438 16.949219 14.925781 C 17.699219 15.074219 18.824219 16.050781 18.824219 16.050781"/></clipPath><clipPath id="52ea6dcc47"><path clip-rule="nonzero" d="M 0.0820312 0.851562 L 8.96875 0.851562 L 8.96875 9.625 L 0.0820312 9.625 Z M 0.0820312 0.851562"/></clipPath><clipPath id="f8d6fae0cb"><path clip-rule="nonzero" d="M 8.949219 3.925781 C 8.726562 7.074219 7.601562 8.875 6.476562 9.324219 C 5.351562 9.851562 3.25 9.550781 2.273438 9.101562 C 1.601562 8.800781 1.148438 8.199219 0.773438 7.601562 C 0.398438 7 0.101562 6.324219 0.101562 5.5 C 0.175781 4.449219 0.851562 2.5 1.824219 1.675781 C 2.800781 0.925781 4.898438 0.773438 5.949219 0.925781 C 6.699219 1.074219 7.824219 2.050781 7.824219 2.050781"/></clipPath><clipPath id="5c62c1e426"><rect height="10" y="0" width="9" x="0"/></clipPath></defs><g clip-path="url(#68f7c67971)"><path fill-rule="evenodd" fill-opacity="1" d="M 777.957031 392.59375 C 683.21875 285.773438 551.167969 219.4375 405.074219 219.4375 C 258.980469 219.4375 126.925781 285.773438 32.191406 392.59375 C 26.082031 399.414062 26.082031 410.425781 32.191406 417.292969 C 126.925781 524.109375 258.980469 590.402344 405.074219 590.402344 C 551.167969 590.402344 683.21875 524.109375 777.957031 417.292969 C 784.066406 410.425781 784.066406 399.414062 777.957031 392.59375 Z M 405.074219 551.480469 C 324.113281 551.480469 258.488281 485.902344 258.488281 404.941406 C 258.488281 323.976562 324.113281 258.355469 405.074219 258.355469 C 486.035156 258.355469 551.660156 323.980469 551.660156 404.941406 C 551.660156 485.902344 486.035156 551.480469 405.074219 551.480469 Z M 496.601562 404.941406 C 496.601562 455.320312 455.496094 496.46875 405.074219 496.46875 C 354.652344 496.46875 313.546875 455.316406 313.546875 404.941406 C 313.546875 354.5625 354.652344 313.414062 405.074219 313.414062 C 455.496094 313.414062 496.601562 354.519531 496.601562 404.941406 Z M 496.601562 404.941406" fill="#5c8374"/></g><g clip-path="url(#d14640aaa9)"><g clip-path="url(#767f9560b3)"><g transform="matrix(1, 0, 0, 1, 11, 14)"><g clip-path="url(#5c62c1e426)"><g clip-path="url(#52ea6dcc47)"><g clip-path="url(#f8d6fae0cb)"><rect fill-opacity="1" y="-192.199998" height="1166.39999" fill="#e7191f" width="1166.4" x="-189.2"/></g></g></g></g></g></g></svg>