<svg version="1.0" preserveAspectRatio="xMidYMid meet" viewBox="179.15094000000002 120.8519989556 458.46 542.6999953100001" zoomAndPan="magnify" xmlns:xlink="http://www.w3.org/1999/xlink" xmlns="http://www.w3.org/2000/svg" style="max-height: 500px" width="458.46" height="542.6999953100001"><defs><g/><clipPath id="82d3b4e26d"><rect height="588" y="0" width="273" x="0"/></clipPath><clipPath id="99db77b0e7"><rect height="621" y="0" width="295" x="0"/></clipPath></defs><g transform="matrix(1, 0, 0, 1, 171, 0.000000000000039746)"><g clip-path="url(#82d3b4e26d)"><g fill-opacity="1" fill="#5c8374"><g transform="translate(0.516396, 466.749733)"><g><path d="M 131.796875 -334.59375 C 150.046875 -334.59375 164.117188 -332.660156 174.015625 -328.796875 C 183.921875 -324.929688 192.429688 -320.832031 199.546875 -316.5 C 203.265625 -314.332031 206.28125 -312.707031 208.59375 -311.625 C 210.914062 -310.539062 213.160156 -310 215.328125 -310 C 218.421875 -310 220.664062 -311.703125 222.0625 -315.109375 C 223.457031 -318.515625 224.617188 -323.617188 225.546875 -330.421875 L 236.21875 -330.421875 C 235.90625 -324.546875 235.515625 -317.507812 235.046875 -309.3125 C 234.585938 -301.113281 234.28125 -290.359375 234.125 -277.046875 C 233.96875 -263.742188 233.890625 -246.265625 233.890625 -224.609375 L 223.21875 -224.609375 C 221.976562 -240.703125 218.265625 -256.328125 212.078125 -271.484375 C 205.890625 -286.640625 197.148438 -299.09375 185.859375 -308.84375 C 174.566406 -318.59375 160.722656 -323.46875 144.328125 -323.46875 C 129.472656 -323.46875 117.25 -319.289062 107.65625 -310.9375 C 98.070312 -302.582031 93.28125 -290.976562 93.28125 -276.125 C 93.28125 -263.75 96.375 -253.148438 102.5625 -244.328125 C 108.75 -235.515625 117.796875 -226.929688 129.703125 -218.578125 C 141.617188 -210.222656 156.082031 -200.171875 173.09375 -188.421875 C 187.945312 -178.828125 201.25 -169.234375 213 -159.640625 C 224.757812 -150.046875 234.195312 -139.21875 241.3125 -127.15625 C 248.4375 -115.09375 252 -100.707031 252 -84 C 252 -63.582031 246.660156 -46.71875 235.984375 -33.40625 C 225.304688 -20.101562 211.304688 -10.125 193.984375 -3.46875 C 176.660156 3.175781 157.632812 6.5 136.90625 6.5 C 117.71875 6.5 102.398438 4.640625 90.953125 0.921875 C 79.503906 -2.785156 69.914062 -6.648438 62.1875 -10.671875 C 55.382812 -15.003906 50.125 -17.171875 46.40625 -17.171875 C 43.3125 -17.171875 41.066406 -15.46875 39.671875 -12.0625 C 38.285156 -8.664062 37.128906 -3.5625 36.203125 3.25 L 25.53125 3.25 C 26.144531 -4.175781 26.53125 -12.835938 26.6875 -22.734375 C 26.84375 -32.640625 26.992188 -45.554688 27.140625 -61.484375 C 27.296875 -77.421875 27.375 -97.609375 27.375 -122.046875 L 38.046875 -122.046875 C 39.285156 -101.628906 42.765625 -82.523438 48.484375 -64.734375 C 54.210938 -46.941406 63.03125 -32.628906 74.9375 -21.796875 C 86.851562 -10.972656 102.710938 -5.5625 122.515625 -5.5625 C 133.347656 -5.5625 143.015625 -7.492188 151.515625 -11.359375 C 160.023438 -15.234375 166.910156 -21.035156 172.171875 -28.765625 C 177.429688 -36.503906 180.0625 -46.097656 180.0625 -57.546875 C 180.0625 -70.535156 177.046875 -81.828125 171.015625 -91.421875 C 164.984375 -101.015625 156.785156 -109.988281 146.421875 -118.34375 C 136.054688 -126.695312 124.066406 -135.203125 110.453125 -143.859375 C 95.910156 -153.453125 82.296875 -163.046875 69.609375 -172.640625 C 56.921875 -182.234375 46.785156 -193.21875 39.203125 -205.59375 C 31.628906 -217.96875 27.84375 -232.660156 27.84375 -249.671875 C 27.84375 -269.160156 32.710938 -285.171875 42.453125 -297.703125 C 52.203125 -310.234375 65.039062 -319.515625 80.96875 -325.546875 C 96.90625 -331.578125 113.847656 -334.59375 131.796875 -334.59375 Z M 131.796875 -334.59375"/></g></g></g></g></g><g transform="matrix(1, 0, 0, 1, 344, 149)"><g clip-path="url(#99db77b0e7)"><g fill-opacity="1" fill="#5c8374"><g transform="translate(0.254996, 500.366747)"><g><path d="M 264.0625 -328.5625 C 262.820312 -314.945312 261.96875 -301.796875 261.5 -289.109375 C 261.039062 -276.429688 260.8125 -266.691406 260.8125 -259.890625 C 260.8125 -253.703125 260.960938 -247.820312 261.265625 -242.25 C 261.578125 -236.675781 261.890625 -232.035156 262.203125 -228.328125 L 251.53125 -228.328125 C 248.4375 -250.910156 243.640625 -268.773438 237.140625 -281.921875 C 230.640625 -295.078125 222.207031 -304.359375 211.84375 -309.765625 C 201.488281 -315.179688 189.347656 -317.890625 175.421875 -317.890625 L 156.390625 -317.890625 C 147.421875 -317.890625 140.613281 -317.113281 135.96875 -315.5625 C 131.332031 -314.019531 128.238281 -310.925781 126.6875 -306.28125 C 125.144531 -301.644531 124.375 -294.53125 124.375 -284.9375 L 124.375 -43.625 C 124.375 -34.03125 125.144531 -26.910156 126.6875 -22.265625 C 128.238281 -17.628906 131.332031 -14.535156 135.96875 -12.984375 C 140.613281 -11.441406 147.421875 -10.671875 156.390625 -10.671875 L 179.140625 -10.671875 C 193.054688 -10.671875 205.351562 -13.6875 216.03125 -19.71875 C 226.707031 -25.75 235.832031 -36.035156 243.40625 -50.578125 C 250.988281 -65.117188 256.789062 -84.765625 260.8125 -109.515625 L 271.484375 -109.515625 C 270.554688 -99.617188 270.09375 -86.628906 270.09375 -70.546875 C 270.09375 -63.421875 270.242188 -53.363281 270.546875 -40.375 C 270.859375 -27.382812 271.789062 -13.925781 273.34375 0 C 257.5625 -0.613281 239.769531 -1 219.96875 -1.15625 C 200.164062 -1.3125 182.53125 -1.390625 167.0625 -1.390625 C 159.332031 -1.390625 149.429688 -1.390625 137.359375 -1.390625 C 125.296875 -1.390625 112.300781 -1.3125 98.375 -1.15625 C 84.457031 -1 70.382812 -0.84375 56.15625 -0.6875 C 41.925781 -0.539062 28.46875 -0.3125 15.78125 0 L 15.78125 -9.28125 C 25.675781 -9.894531 33.097656 -11.128906 38.046875 -12.984375 C 43.003906 -14.847656 46.332031 -18.5625 48.03125 -24.125 C 49.726562 -29.695312 50.578125 -38.050781 50.578125 -49.1875 L 50.578125 -279.375 C 50.578125 -290.820312 49.726562 -299.25 48.03125 -304.65625 C 46.332031 -310.070312 42.929688 -313.785156 37.828125 -315.796875 C 32.722656 -317.816406 25.375 -318.976562 15.78125 -319.28125 L 15.78125 -328.5625 C 28.46875 -328.257812 41.925781 -328.03125 56.15625 -327.875 C 70.382812 -327.71875 84.457031 -327.5625 98.375 -327.40625 C 112.300781 -327.25 125.296875 -327.171875 137.359375 -327.171875 C 149.429688 -327.171875 159.332031 -327.171875 167.0625 -327.171875 C 181.300781 -327.171875 197.46875 -327.25 215.5625 -327.40625 C 233.664062 -327.5625 249.832031 -327.945312 264.0625 -328.5625 Z M 191.671875 -169.859375 C 191.671875 -169.859375 191.671875 -168.3125 191.671875 -165.21875 C 191.671875 -162.125 191.671875 -160.578125 191.671875 -160.578125 L 110.453125 -160.578125 C 110.453125 -160.578125 110.453125 -162.125 110.453125 -165.21875 C 110.453125 -168.3125 110.453125 -169.859375 110.453125 -169.859375 Z M 205.125 -231.109375 C 203.882812 -213.472656 203.34375 -200.015625 203.5 -190.734375 C 203.65625 -181.453125 203.734375 -172.945312 203.734375 -165.21875 C 203.734375 -157.476562 203.882812 -148.96875 204.1875 -139.6875 C 204.5 -130.40625 205.273438 -116.945312 206.515625 -99.3125 L 195.84375 -99.3125 C 194.289062 -110.144531 191.425781 -120.203125 187.25 -129.484375 C 183.070312 -138.765625 177.113281 -146.265625 169.375 -151.984375 C 161.644531 -157.710938 151.59375 -160.578125 139.21875 -160.578125 L 139.21875 -169.859375 C 148.5 -169.859375 156.390625 -171.789062 162.890625 -175.65625 C 169.390625 -179.519531 174.726562 -184.625 178.90625 -190.96875 C 183.082031 -197.3125 186.40625 -204.039062 188.875 -211.15625 C 191.351562 -218.269531 193.210938 -224.921875 194.453125 -231.109375 Z M 205.125 -231.109375"/></g></g></g></g></g></svg>