<svg xmlns="http://www.w3.org/2000/svg" xmlns:xlink="http://www.w3.org/1999/xlink" width="1080" zoomAndPan="magnify" viewBox="0 0 810 809.999993" height="1080" preserveAspectRatio="xMidYMid meet" version="1.0"><path fill="#5c8374" d="M 239.214844 729 L 570.777344 729 C 615.164062 729 651.34375 692.820312 651.34375 648.324219 L 651.34375 161.675781 C 651.34375 117.179688 615.164062 81 570.777344 81 L 239.214844 81 C 194.828125 81 158.648438 117.179688 158.648438 161.675781 L 158.648438 648.324219 C 158.648438 692.820312 194.828125 729 239.214844 729 Z M 180.25 161.675781 C 180.25 129.058594 206.707031 102.601562 239.214844 102.601562 L 570.777344 102.601562 C 603.285156 102.601562 629.746094 129.058594 629.746094 161.675781 L 629.746094 648.324219 C 629.746094 680.941406 603.285156 707.398438 570.777344 707.398438 L 239.214844 707.398438 C 206.707031 707.398438 180.25 680.941406 180.25 648.324219 Z M 180.25 161.675781 " fill-opacity="1" fill-rule="nonzero"/><path fill="#5c8374" d="M 311.253906 405.324219 C 336.199219 427.570312 369.03125 441.179688 404.996094 441.179688 C 440.960938 441.179688 473.792969 427.570312 498.742188 405.324219 C 499.710938 404.675781 500.578125 403.921875 501.226562 402.949219 C 528.765625 377.242188 546.152344 340.632812 546.152344 300.132812 C 546.152344 222.265625 482.863281 158.976562 404.996094 158.976562 C 327.128906 158.976562 263.839844 222.265625 263.839844 300.132812 C 263.839844 340.632812 281.230469 377.242188 308.769531 402.949219 C 309.417969 403.921875 310.28125 404.675781 311.253906 405.324219 Z M 359.746094 280.152344 C 359.746094 255.203125 380.046875 234.898438 404.996094 234.898438 C 429.945312 234.898438 450.25 255.203125 450.25 280.152344 C 450.25 305.101562 429.945312 325.402344 404.996094 325.402344 C 380.046875 325.402344 359.746094 305.101562 359.746094 280.152344 Z M 404.996094 419.578125 C 376.808594 419.578125 350.996094 409.753906 330.476562 393.335938 C 344.410156 365.472656 373.351562 347.003906 404.996094 347.003906 C 436.640625 347.003906 465.585938 365.472656 479.515625 393.335938 C 458.996094 409.753906 433.183594 419.578125 404.996094 419.578125 Z M 404.996094 419.578125 " fill-opacity="1" fill-rule="nonzero"/><path fill="#5c8374" d="M 535.308594 484.769531 L 274.671875 484.769531 C 268.699219 484.769531 263.875 489.605469 263.875 495.570312 C 263.875 501.53125 268.699219 506.367188 274.671875 506.367188 L 535.308594 506.367188 C 541.28125 506.367188 546.109375 501.53125 546.109375 495.570312 C 546.109375 489.605469 541.28125 484.769531 535.308594 484.769531 Z M 535.308594 484.769531 " fill-opacity="1" fill-rule="nonzero"/><path fill="#5c8374" d="M 535.308594 557.097656 L 274.671875 557.097656 C 268.699219 557.097656 263.875 561.933594 263.875 567.894531 C 263.875 573.859375 268.699219 578.695312 274.671875 578.695312 L 535.308594 578.695312 C 541.28125 578.695312 546.109375 573.859375 546.109375 567.894531 C 546.109375 561.933594 541.28125 557.097656 535.308594 557.097656 Z M 535.308594 557.097656 " fill-opacity="1" fill-rule="nonzero"/><path fill="#5c8374" d="M 473.089844 629.414062 L 336.914062 629.414062 C 330.941406 629.414062 326.113281 634.25 326.113281 640.214844 C 326.113281 646.175781 330.941406 651.011719 336.914062 651.011719 L 473.089844 651.011719 C 479.0625 651.011719 483.890625 646.175781 483.890625 640.214844 C 483.890625 634.25 479.0625 629.414062 473.089844 629.414062 Z M 473.089844 629.414062 " fill-opacity="1" fill-rule="nonzero"/></svg>