<svg xmlns="http://www.w3.org/2000/svg" xmlns:xlink="http://www.w3.org/1999/xlink" width="1080" zoomAndPan="magnify" viewBox="0 0 810 809.999993" height="1080" preserveAspectRatio="xMidYMid meet" version="1.0"><path fill="#5c8374" d="M 362.09375 111.105469 C 348.015625 111.105469 335.984375 121.058594 333.28125 134.871094 L 323.464844 185.269531 C 299.34375 194.390625 277.039062 207.132812 257.453125 223.210938 L 209.121094 206.566406 C 195.808594 201.980469 181.160156 207.484375 174.109375 219.652344 L 129.792969 296.453125 C 122.769531 308.652344 125.328125 324.132812 135.9375 333.363281 L 174.679688 367.058594 C 172.667969 379.441406 171.351562 392.046875 171.351562 405 C 171.351562 417.949219 172.667969 430.558594 174.679688 442.941406 L 135.9375 476.636719 C 125.328125 485.863281 122.769531 501.347656 129.792969 513.542969 L 174.109375 590.347656 C 181.132812 602.542969 195.808594 608.046875 209.121094 603.492188 L 257.453125 586.84375 C 277.03125 602.910156 299.355469 615.613281 323.464844 624.730469 L 333.28125 675.125 C 335.984375 688.941406 348.015625 698.890625 362.09375 698.890625 L 450.835938 698.890625 C 464.914062 698.890625 476.949219 688.941406 479.652344 675.125 L 489.46875 624.730469 C 513.589844 615.609375 535.890625 602.863281 555.476562 586.785156 L 603.808594 603.433594 C 617.121094 608.019531 631.769531 602.542969 638.824219 590.347656 L 683.136719 513.484375 C 690.160156 501.289062 687.605469 485.863281 676.996094 476.636719 L 638.25 442.941406 C 640.265625 430.558594 641.578125 417.949219 641.578125 405 C 641.578125 392.046875 640.265625 379.441406 638.25 367.058594 L 676.996094 333.363281 C 687.605469 324.132812 690.160156 308.652344 683.136719 296.453125 L 638.824219 219.652344 C 631.800781 207.457031 617.121094 201.953125 603.808594 206.507812 L 555.476562 223.152344 C 535.898438 207.085938 513.578125 194.386719 489.46875 185.269531 L 479.652344 134.871094 C 476.949219 121.058594 464.914062 111.105469 450.835938 111.105469 Z M 406.464844 287.441406 C 471.386719 287.441406 524.023438 340.078125 524.023438 405 C 524.023438 469.917969 471.386719 522.554688 406.464844 522.554688 C 341.542969 522.554688 288.910156 469.917969 288.910156 405 C 288.910156 340.078125 341.542969 287.441406 406.464844 287.441406 Z M 406.464844 287.441406 " fill-opacity="1" fill-rule="nonzero"/></svg>