<svg xmlns="http://www.w3.org/2000/svg" xmlns:xlink="http://www.w3.org/1999/xlink" width="1080" zoomAndPan="magnify" viewBox="0 0 810 809.999993" height="1080" preserveAspectRatio="xMidYMid meet" version="1.0"><defs><clipPath id="b306d6ff80"><path d="M 105.128906 105.128906 L 705 105.128906 L 705 705 L 105.128906 705 Z M 105.128906 105.128906 " clip-rule="nonzero"/></clipPath></defs><g clip-path="url(#b306d6ff80)"><path fill="#5c8374" d="M 704.898438 405.011719 C 704.898438 481.730469 676.109375 551.703125 628.699219 604.730469 C 573.796875 666.207031 493.933594 704.890625 405.015625 704.890625 C 316.101562 704.890625 236.210938 666.207031 181.332031 604.730469 C 133.925781 551.703125 105.136719 481.730469 105.136719 405.011719 C 105.136719 239.402344 239.382812 105.132812 405.015625 105.132812 C 570.625 105.132812 704.898438 239.402344 704.898438 405.011719 " fill-opacity="1" fill-rule="nonzero"/></g><path fill="#f2f2f2" d="M 405.015625 460.25 C 459.367188 460.25 508.871094 398.757812 508.871094 331.238281 C 508.871094 267.445312 496.535156 204.359375 405.015625 204.359375 C 313.488281 204.359375 301.148438 267.445312 301.148438 331.238281 C 301.148438 398.757812 350.65625 460.25 405.015625 460.25 " fill-opacity="1" fill-rule="nonzero"/><path fill="#f2f2f2" d="M 628.699219 604.730469 C 573.796875 666.207031 493.933594 704.890625 405.015625 704.890625 C 316.101562 704.890625 236.210938 666.207031 181.332031 604.730469 C 180.382812 567.695312 205.046875 481.882812 330.84375 455.46875 C 352.363281 477.429688 378.851562 489.851562 405.015625 489.851562 C 431.179688 489.851562 457.648438 477.429688 479.160156 455.46875 C 604.988281 481.882812 629.628906 567.695312 628.699219 604.730469 " fill-opacity="1" fill-rule="nonzero"/></svg>